<?xml version="1.0" standalone="no"?>
<!DOCTYPE svg PUBLIC "-//W3C//DTD SVG 20010904//EN"
 "http://www.w3.org/TR/2001/REC-SVG-20010904/DTD/svg10.dtd">
<svg version="1.0" xmlns="http://www.w3.org/2000/svg"
 width="922.000000pt" height="922.000000pt" viewBox="0 0 922.000000 922.000000"
 preserveAspectRatio="xMidYMid meet">
<metadata>
Created by potrace 1.14, written by Peter Selinger 2001-2017
</metadata>
<g transform="translate(0.000000,922.000000) scale(0.100000,-0.100000)"
fill="#000000" stroke="none">
<path d="M4557 7344 c-4 -4 -58 -8 -121 -10 -63 -1 -119 -5 -125 -9 -6 -3 -21
-6 -34 -5 -12 1 -24 1 -27 0 -7 -2 -28 -6 -113 -21 -102 -17 -110 -23 -105
-70 4 -48 -7 -52 -16 -5 -8 42 -26 50 -80 35 -22 -6 -50 -13 -61 -15 -27 -5
-182 -53 -225 -69 -19 -7 -62 -23 -95 -36 -33 -12 -65 -26 -72 -31 -7 -6 -16
-7 -22 -4 -5 3 -11 3 -13 -1 -1 -5 -66 -40 -142 -78 -76 -39 -144 -78 -150
-87 -8 -13 -7 -26 1 -50 11 -30 11 -31 -2 -13 -37 52 -40 52 -118 -2 -26 -19
-53 -31 -59 -27 -6 4 -8 3 -5 -3 4 -6 -19 -28 -50 -49 -31 -21 -75 -54 -97
-73 -23 -18 -61 -50 -86 -70 -39 -31 -267 -257 -296 -293 -17 -22 -24 -47 -14
-53 19 -12 10 -26 -9 -15 -15 8 -24 6 -37 -7 -37 -37 -234 -316 -234 -332 0
-3 -11 -23 -25 -44 -14 -20 -23 -37 -20 -37 4 0 -2 -12 -13 -27 -17 -24 -57
-106 -107 -218 -8 -16 -21 -52 -30 -79 -15 -46 -15 -50 2 -69 10 -11 13 -17 6
-14 -22 13 -42 -5 -60 -56 -9 -29 -18 -54 -18 -57 -1 -3 -9 -32 -19 -65 -10
-33 -19 -69 -21 -80 -1 -11 -9 -49 -18 -85 -19 -80 -29 -133 -33 -185 -2 -22
-6 -50 -9 -61 -2 -12 -8 -64 -11 -115 -4 -52 -12 -97 -18 -101 -8 -6 -8 -8 1
-8 8 0 11 -13 8 -39 -3 -29 1 -46 16 -65 l20 -26 -28 0 c-15 0 -23 -4 -18 -8
6 -4 11 -25 11 -47 1 -58 13 -215 20 -250 3 -16 7 -52 9 -80 2 -27 4 -50 5
-50 1 0 4 -13 6 -30 3 -16 9 -43 14 -60 5 -16 11 -41 14 -55 3 -14 7 -36 10
-50 3 -14 9 -38 12 -55 3 -16 9 -34 12 -40 4 -5 8 -19 9 -30 7 -44 49 -151 70
-176 8 -9 13 -20 12 -25 -5 -18 14 -77 41 -133 15 -31 45 -92 66 -136 22 -44
41 -82 44 -85 16 -16 48 -88 42 -95 -4 -5 -2 -5 4 -2 10 6 40 -39 36 -55 -1
-5 2 -8 6 -8 7 0 48 -55 87 -118 6 -9 15 -21 20 -27 6 -7 35 -44 65 -83 30
-39 67 -77 82 -84 15 -7 24 -16 22 -20 -3 -5 6 -22 20 -39 15 -17 23 -36 20
-41 -4 -6 -2 -8 4 -4 13 8 44 -22 37 -35 -4 -5 3 -9 14 -9 13 0 21 -7 21 -17
0 -9 2 -14 5 -11 8 8 113 -96 107 -106 -3 -5 0 -6 6 -2 6 4 29 -11 51 -33 22
-22 42 -37 44 -34 3 3 12 -4 19 -16 7 -12 17 -21 21 -21 15 0 77 -52 72 -60
-3 -4 1 -7 8 -6 7 0 24 -7 38 -17 57 -41 210 -137 218 -137 5 0 11 -4 13 -10
1 -5 18 -11 36 -13 28 -3 71 -27 48 -27 -5 0 23 -16 60 -35 38 -19 75 -35 82
-35 6 0 12 -5 12 -12 0 -6 3 -9 6 -5 4 3 20 -1 36 -9 17 -9 71 -31 122 -49 50
-18 105 -39 121 -45 17 -7 41 -14 54 -16 13 -2 31 -6 40 -10 9 -4 21 -8 28
-10 6 -1 27 -7 45 -13 18 -5 47 -12 63 -15 17 -2 30 -5 30 -6 0 -1 9 -3 20 -5
11 -1 40 -7 65 -13 81 -19 151 -24 167 -11 11 10 16 10 22 0 12 -19 60 -41 67
-30 3 5 10 6 17 2 11 -6 123 -14 201 -13 22 0 43 -6 48 -12 5 -9 8 -9 8 -1 0
7 33 12 103 13 102 1 114 2 217 14 97 12 115 15 115 16 0 1 12 3 28 4 15 1 27
-3 27 -9 0 -6 3 -6 8 1 7 10 125 40 149 38 6 -1 9 5 6 12 -3 9 1 14 12 14 10
0 14 -5 9 -12 -5 -10 -4 -10 6 -1 7 6 18 9 24 7 6 -2 34 2 60 10 27 8 53 13
57 10 4 -2 9 0 11 6 2 6 17 11 33 13 17 1 32 5 35 8 6 7 179 69 200 72 8 1 17
4 20 7 14 14 52 30 59 25 5 -3 11 2 15 10 3 8 12 15 20 15 8 0 37 11 64 25 28
14 55 25 61 25 6 0 11 3 11 8 0 4 17 15 38 25 67 32 122 64 140 81 10 9 24 16
30 16 6 0 19 12 28 26 13 19 24 24 41 21 13 -2 26 0 30 6 4 6 1 7 -8 3 -8 -4
-3 2 11 13 14 11 30 21 37 21 6 0 13 4 15 8 2 5 30 28 63 53 32 24 67 52 77
61 10 10 23 16 30 14 7 -1 9 -1 5 2 -5 2 -1 13 9 23 9 10 20 16 25 14 4 -3 10
4 14 15 3 11 10 20 14 20 4 0 18 10 31 23 14 12 28 21 32 20 5 -2 8 3 8 10 0
8 17 30 38 49 42 40 131 135 182 198 19 23 40 47 45 54 25 27 54 86 42 86 -7
0 2 8 18 18 17 10 52 53 78 94 26 42 55 79 63 82 8 3 12 11 9 17 -4 5 4 27 17
47 14 20 33 56 43 79 10 23 23 39 28 36 6 -3 7 -1 3 5 -6 11 12 62 23 62 4 0
13 20 20 46 7 25 20 52 28 60 8 7 12 14 9 14 -3 0 0 14 6 30 9 27 12 29 27 18
14 -12 15 -11 2 5 -12 15 -9 31 24 122 23 65 35 115 32 132 -3 17 1 33 13 45
10 11 23 47 30 81 8 34 14 67 16 72 1 6 5 24 8 40 3 17 8 41 11 55 7 35 17
131 16 158 -1 13 2 21 7 19 4 -3 8 27 8 66 4 232 4 299 1 357 -6 92 -6 90 -21
90 -13 0 -13 4 -1 27 8 15 12 29 10 33 -2 3 -7 38 -11 76 -3 38 -8 78 -11 89
-10 44 -16 81 -17 100 -1 11 -4 22 -8 25 -4 3 -9 27 -10 53 -2 26 -5 47 -8 47
-3 0 -12 21 -19 48 -42 147 -90 278 -138 378 -21 43 -29 51 -47 46 -17 -4 -19
-2 -8 9 6 7 12 20 12 30 0 19 -49 115 -106 209 -22 36 -47 76 -55 90 -14 24
-99 143 -119 167 -5 7 -10 14 -10 17 0 3 -11 17 -25 32 -13 14 -22 31 -18 37
3 5 2 7 -4 4 -5 -3 -16 3 -24 15 -34 49 -153 168 -168 168 -9 0 -23 -6 -31
-12 -12 -11 -12 -10 -3 2 24 34 -4 71 -154 199 -29 24 -49 49 -46 54 3 6 1 7
-5 3 -8 -5 -137 81 -199 134 -7 5 -17 10 -23 10 -5 0 -10 4 -10 9 0 5 -8 11
-17 15 -10 3 -27 11 -38 18 -11 7 -38 24 -60 37 -70 44 -169 89 -183 83 -7 -2
-18 -16 -23 -30 -12 -31 -23 -23 -11 9 13 38 4 53 -46 73 -26 11 -69 29 -97
42 -52 23 -172 67 -190 70 -5 1 -48 14 -95 29 -47 15 -94 28 -105 30 -11 2
-51 10 -90 18 -108 24 -146 29 -200 31 l-50 1 -12 -45 c-12 -49 -16 -46 -13
12 1 33 -2 39 -27 49 -15 6 -100 11 -188 12 -88 1 -163 5 -166 10 -3 4 -8 4
-12 1z m395 -164 c-2 -16 -6 -30 -8 -30 -2 0 -4 14 -4 30 0 17 4 30 8 30 5 0
7 -13 4 -30z m-100 -1228 c19 -1 45 -5 58 -8 14 -3 33 -7 43 -7 9 -1 17 -8 17
-17 0 -9 3 -11 8 -5 10 14 32 17 32 5 0 -5 11 -10 23 -10 13 0 27 -3 31 -7 4
-5 16 -9 27 -9 10 -1 24 -2 29 -3 6 0 11 -11 11 -23 1 -18 2 -19 6 -5 3 12 8
15 16 8 7 -5 17 -11 22 -13 6 -1 10 -8 9 -14 -1 -6 5 -11 12 -11 7 0 11 4 8 9
-8 13 19 9 46 -8 18 -11 19 -14 5 -9 -17 5 -18 4 -7 -7 11 -11 16 -10 26 5 13
16 14 16 19 -3 3 -11 1 -18 -3 -15 -5 3 -11 1 -14 -4 -7 -10 13 -9 30 1 6 4
20 -1 31 -11 11 -11 35 -27 54 -36 19 -10 36 -21 39 -25 3 -4 15 -13 28 -19
22 -11 22 -14 7 -25 -16 -11 -16 -13 0 -26 12 -10 18 -11 28 -1 9 10 8 11 -4
6 -10 -4 -20 -2 -23 3 -10 17 28 24 40 8 6 -9 14 -13 17 -10 3 3 12 -3 19 -15
7 -12 19 -21 26 -21 7 0 10 -4 7 -10 -3 -5 -1 -10 6 -10 7 0 19 -7 28 -15 9
-9 33 -29 55 -45 21 -17 35 -30 31 -30 -5 0 2 -9 14 -19 20 -18 21 -20 4 -24
-16 -4 -15 -5 2 -6 20 -1 55 -33 55 -49 0 -4 9 -13 21 -20 19 -12 20 -15 5
-31 -14 -15 -14 -18 -1 -18 8 0 12 4 9 9 -3 4 -1 8 4 8 11 0 62 -74 62 -90 0
-5 5 -10 11 -10 6 0 9 -7 6 -15 -4 -8 -1 -17 5 -21 7 -4 8 -3 4 4 -4 7 -5 12
-2 12 4 0 14 -18 23 -40 10 -22 21 -40 26 -40 4 0 6 -4 2 -9 -3 -5 6 -18 19
-28 18 -15 22 -23 14 -36 -5 -11 -5 -17 1 -17 5 0 14 -14 20 -30 6 -18 6 -28
1 -25 -6 4 -10 1 -10 -4 0 -6 4 -11 9 -11 11 0 36 -58 37 -85 0 -11 6 -33 12
-48 7 -15 11 -31 10 -35 -1 -4 3 -23 10 -43 7 -20 12 -41 11 -45 -1 -5 0 -11
1 -14 15 -40 20 -251 6 -269 -8 -11 -8 -13 2 -7 8 5 11 1 8 -16 -2 -13 -9 -22
-15 -20 -6 1 -11 -2 -11 -8 0 -5 7 -10 16 -10 15 0 15 -3 -1 -26 -9 -15 -12
-23 -6 -20 6 4 11 0 11 -9 0 -9 -4 -14 -9 -10 -5 3 -13 1 -16 -5 -4 -6 -1 -9
7 -8 16 4 16 1 -1 -89 -9 -46 -19 -73 -27 -73 -7 0 -16 -4 -19 -10 -3 -5 0 -7
7 -5 9 4 14 -2 15 -15 2 -26 -42 -122 -51 -113 -4 4 -4 0 -1 -9 7 -16 -21 -87
-38 -99 -5 -3 -8 -9 -7 -13 1 -4 0 -16 -3 -28 -5 -19 -8 -20 -24 -7 -17 13
-17 13 -4 -4 9 -11 11 -21 5 -25 -5 -4 -10 -14 -12 -22 -2 -8 -8 -17 -13 -18
-5 -2 -7 -7 -4 -12 2 -4 -6 -19 -20 -34 -13 -15 -24 -29 -24 -32 3 -20 -152
-186 -168 -180 -7 3 -15 0 -19 -6 -4 -7 -3 -8 4 -4 19 12 14 -10 -7 -28 -11
-10 -25 -15 -32 -10 -7 4 -10 3 -5 -4 8 -13 -64 -73 -77 -65 -6 3 -7 1 -3 -6
4 -6 0 -14 -11 -18 -10 -4 -23 -12 -29 -17 -42 -40 -171 -109 -186 -100 -6 4
-8 3 -5 -3 7 -11 -60 -46 -73 -38 -4 3 -11 -2 -14 -11 -3 -8 -10 -13 -15 -9
-5 3 -12 1 -16 -5 -3 -5 -11 -10 -16 -10 -6 0 -8 4 -5 8 3 5 -1 9 -8 9 -8 0
-12 -6 -9 -14 3 -7 -2 -13 -10 -13 -9 0 -28 -5 -44 -12 -15 -6 -30 -12 -33
-12 -54 -12 -100 -31 -100 -43 0 -11 -4 -11 -20 -3 -12 7 -33 7 -60 1 -25 -5
-42 -5 -46 1 -4 5 -10 5 -17 -1 -20 -16 -63 -16 -83 -1 -18 14 -18 14 -5 -3
13 -16 10 -17 -47 -15 -34 1 -63 0 -66 -2 -9 -10 -136 2 -130 12 3 5 -4 4 -16
-4 -18 -10 -24 -10 -27 -1 -4 10 -9 10 -25 -1 -18 -13 -23 -13 -35 0 -8 8 -18
12 -23 9 -5 -3 -11 -1 -15 4 -3 6 -12 8 -20 4 -16 -6 -20 7 -7 23 4 5 -1 1
-10 -9 -17 -19 -18 -19 -18 -1 0 16 -2 17 -10 4 -6 -9 -13 -11 -17 -5 -5 6
-23 11 -42 13 -19 1 -41 10 -48 20 -8 9 -12 11 -8 5 8 -16 2 -16 -46 -2 -20 7
-39 19 -42 29 -2 9 -11 17 -20 17 -9 0 -14 -4 -11 -9 3 -4 0 -8 -5 -8 -6 0
-11 4 -11 8 0 4 -10 8 -22 9 -11 1 -24 7 -28 13 -4 7 -10 11 -14 11 -25 -4
-37 1 -33 12 4 10 -3 12 -25 9 -21 -3 -29 -1 -24 7 5 7 1 9 -8 5 -11 -4 -16 0
-16 11 0 9 -4 13 -10 10 -5 -3 -10 -1 -10 5 0 6 -4 8 -10 5 -5 -3 -10 -1 -10
5 0 6 -5 8 -12 4 -7 -5 -9 -2 -5 8 3 9 0 15 -6 15 -32 -1 -48 4 -42 13 3 6 -1
10 -10 10 -15 0 -25 6 -60 38 -7 6 -18 12 -24 12 -6 0 -11 7 -11 16 0 8 -4 13
-9 9 -12 -7 -67 44 -63 59 2 6 0 8 -4 3 -10 -9 -45 23 -38 35 3 5 0 8 -8 6 -8
-2 -30 13 -49 33 -72 75 -93 102 -79 95 8 -4 5 1 -8 10 -23 17 -31 41 -9 28 7
-4 9 -3 4 2 -5 5 -14 9 -20 9 -7 0 -11 8 -11 18 1 9 -2 15 -6 12 -5 -3 -11 4
-15 15 -3 11 -11 20 -16 20 -6 0 -7 5 -4 10 3 6 3 10 -2 10 -12 0 -35 58 -28
70 4 6 -1 7 -11 3 -13 -5 -16 -3 -11 10 4 10 2 17 -4 17 -6 0 -8 7 -5 16 3 8
2 13 -2 10 -12 -7 -39 54 -37 81 1 12 -2 20 -7 17 -4 -3 -8 -1 -8 4 0 15 31
24 45 12 8 -7 12 -6 12 4 0 10 -10 13 -36 10 -26 -3 -32 -1 -21 6 13 8 12 10
-4 10 -14 0 -17 6 -14 25 3 14 1 22 -5 18 -5 -3 -6 3 -2 17 5 15 4 20 -4 16
-15 -10 -14 17 2 33 8 9 8 12 0 7 -18 -10 -22 18 -4 31 14 10 14 11 -4 10 -17
-2 -21 7 -29 56 -8 47 -7 60 5 68 11 7 11 9 -3 9 -21 0 -23 11 -6 28 9 9 9 12
-1 12 -11 0 -11 3 0 17 8 9 9 14 3 10 -9 -5 -12 23 -11 103 1 61 2 110 3 110
16 0 32 -15 27 -24 -4 -6 1 -5 10 3 13 10 14 18 6 32 -11 22 -20 24 -38 7 -11
-11 -11 -9 -2 10 7 12 9 27 6 32 -3 6 -3 15 1 22 4 6 8 25 10 42 3 41 13 85
23 105 9 16 11 23 11 41 0 6 5 10 11 10 8 0 7 -5 -1 -15 -11 -13 -10 -14 4 -9
9 3 16 1 16 -4 0 -6 -6 -12 -14 -14 -10 -2 -7 -8 10 -21 14 -10 23 -13 22 -6
-2 6 3 14 10 16 8 3 10 -2 6 -14 -5 -15 -4 -15 5 -3 14 20 -3 37 -22 22 -11
-10 -14 -6 -14 18 0 24 3 28 14 18 10 -8 17 -8 25 0 7 7 8 12 3 12 -6 0 -3 5
5 11 13 8 12 9 -4 7 -10 -2 -21 3 -23 10 -3 8 2 10 14 6 15 -5 15 -4 3 5 -8 5
-11 13 -7 17 3 4 13 1 22 -6 9 -7 18 -10 21 -7 3 3 -4 11 -17 17 -19 10 -24
10 -35 -4 -14 -20 -23 -4 -18 34 1 14 3 29 3 33 1 5 6 5 12 2 6 -4 10 -1 8 6
-3 29 1 49 13 49 6 0 8 -3 5 -7 -4 -3 -2 -12 4 -20 9 -10 8 -13 -1 -13 -8 0
-10 -3 -6 -7 3 -4 -4 -13 -16 -20 -13 -7 -17 -12 -9 -13 11 0 11 -3 1 -15 -11
-13 -10 -14 4 -9 10 4 15 13 12 21 -4 10 -1 13 13 8 14 -4 21 2 31 25 7 16 18
30 26 30 19 0 27 19 15 34 -6 7 -8 16 -4 19 6 6 -4 9 -24 6 -3 0 -10 6 -15 15
-6 11 0 29 19 58 15 24 28 45 28 48 2 19 18 29 34 21 20 -11 47 2 37 17 -3 6
-2 13 4 17 9 5 14 -6 12 -26 0 -3 8 -10 19 -17 11 -7 19 -8 19 -2 0 5 -5 10
-11 10 -5 0 -7 5 -4 10 3 6 1 10 -5 10 -6 0 -8 5 -5 10 3 6 1 10 -4 10 -6 0
-11 4 -11 8 0 5 7 9 15 9 8 0 15 -6 15 -13 0 -7 4 -16 10 -19 6 -4 6 3 0 21
-6 15 -8 29 -5 32 2 3 9 -6 14 -19 5 -13 10 -17 10 -9 0 8 -8 26 -19 40 -11
14 -19 18 -17 10 2 -8 2 -11 -1 -7 -2 4 -10 3 -18 -4 -8 -6 -11 -15 -8 -20 3
-5 0 -9 -6 -9 -6 0 -8 -5 -4 -12 5 -7 3 -8 -6 -3 -9 6 -11 4 -5 -5 6 -9 4 -11
-6 -5 -11 7 -11 5 1 -10 12 -15 12 -17 1 -10 -10 6 -12 4 -6 -6 8 -12 6 -12
-8 0 -9 7 -17 14 -17 16 0 2 7 10 55 67 22 26 25 39 10 51 -6 6 -3 7 6 4 17
-6 59 26 59 43 0 6 7 10 15 10 8 0 14 3 12 8 -5 17 28 16 45 -1 11 -12 16 -12
28 1 13 14 12 15 -2 10 -9 -4 -24 0 -35 7 -15 12 -16 16 -4 27 8 7 11 8 8 2
-9 -16 18 -25 32 -11 8 8 11 8 11 -1 0 -7 5 -12 11 -12 5 0 8 4 4 9 -3 6 4 15
15 21 17 9 20 8 21 -7 0 -12 2 -13 6 -5 3 7 -3 22 -12 33 -14 14 -21 16 -32 8
-10 -9 -13 -8 -13 0 0 22 31 24 54 2 17 -16 23 -18 23 -7 0 8 -5 12 -10 9 -6
-4 -8 0 -4 10 4 11 2 14 -8 11 -10 -4 -12 0 -8 15 7 26 33 28 33 2 0 -11 5
-23 11 -27 7 -4 9 0 5 14 -4 11 -2 23 4 27 5 3 10 -3 10 -14 0 -11 4 -22 9
-25 5 -4 6 5 2 21 -4 16 -14 28 -22 28 -8 0 -14 4 -14 10 0 11 23 8 40 -4 20
-16 45 -20 51 -9 4 7 3 8 -4 4 -7 -4 -12 -2 -12 4 0 6 -4 8 -10 5 -5 -3 -19 0
-30 8 -21 14 -16 21 18 28 4 1 13 10 21 21 10 15 16 17 25 8 8 -8 7 -15 -6
-24 -10 -7 -18 -17 -18 -21 0 -4 8 -1 17 6 15 12 16 12 9 -6 -4 -11 -3 -16 1
-11 4 4 9 24 11 44 3 57 4 59 21 59 46 0 61 4 58 16 -1 7 6 11 17 9 10 -2 15
1 12 6 -8 13 30 22 42 10 5 -5 14 -2 23 9 13 16 12 17 -3 4 -10 -7 -18 -9 -18
-3 0 11 26 25 52 27 10 1 25 8 34 16 14 11 15 10 12 -7 -2 -15 3 -19 22 -19
20 0 25 5 24 27 -1 22 5 28 40 38 23 7 48 14 56 14 9 1 21 5 28 10 7 4 20 2
29 -6 15 -11 16 -11 10 5 -3 9 -3 17 1 18 56 8 102 7 97 -1 -10 -15 6 -12 19
4 13 17 86 31 86 16 0 -6 8 -10 18 -10 15 0 15 2 2 11 -13 9 -13 10 2 6 9 -3
19 -3 22 0 7 7 156 10 156 3 0 -3 26 -5 58 -5 39 0 60 4 66 14 8 12 10 11 16
-5 6 -14 18 -20 42 -22z m-758 -88 c8 -21 9 -20 -13 -21 -14 -1 -17 3 -14 18
6 23 19 25 27 3z m-444 -244 c0 -5 -5 -10 -11 -10 -5 0 -7 5 -4 10 3 6 8 10
11 10 2 0 4 -4 4 -10z m-14 -62 c-8 -5 -19 -9 -23 -9 -5 0 -13 -5 -20 -11 -9
-7 -11 -4 -10 11 1 22 27 30 27 9 0 -7 5 -5 11 5 6 9 15 14 21 11 7 -4 5 -10
-6 -16z m-186 -198 c0 -5 -2 -10 -4 -10 -3 0 -8 5 -11 10 -3 6 -1 10 4 10 6 0
11 -4 11 -10z m-138 -215 c3 3 10 -6 16 -20 9 -20 9 -25 -3 -25 -8 0 -21 -13
-30 -30 -9 -16 -18 -30 -21 -30 -2 0 0 8 5 19 6 10 7 21 4 25 -12 11 -13 45
-3 51 6 4 7 12 3 18 -5 8 -2 8 9 0 8 -7 17 -11 20 -8z m-79 -185 c31 -48 26
-51 -13 -10 -15 17 -23 30 -17 30 7 0 5 5 -3 10 -8 5 -10 10 -4 10 6 0 22 -18
37 -40z m-13 -20 c0 -5 -7 -7 -15 -4 -8 4 -12 10 -9 15 6 11 24 2 24 -11z
m-47 -284 c4 -10 1 -13 -9 -9 -7 3 -14 9 -14 14 0 14 17 10 23 -5z"/>
<path d="M4559 5968 c-5 -18 -6 -38 -1 -34 7 8 12 36 6 36 -2 0 -4 -1 -5 -2z"/>
<path d="M4515 5950 c-3 -6 1 -7 9 -4 18 7 21 14 7 14 -6 0 -13 -4 -16 -10z"/>
<path d="M4620 5953 c0 -6 5 -15 10 -18 6 -4 8 -10 5 -15 -3 -5 -1 -11 4 -14
12 -8 8 14 -7 39 -6 11 -12 15 -12 8z"/>
<path d="M4654 5949 c1 -7 10 -13 19 -15 9 -1 15 2 11 7 -3 5 -9 7 -14 4 -4
-3 -11 0 -13 5 -3 6 -4 5 -3 -1z"/>
<path d="M4797 5953 c-4 -3 -7 -11 -7 -16 0 -6 3 -7 7 -4 3 4 13 1 22 -6 14
-11 15 -10 1 8 -8 11 -15 21 -16 23 0 1 -4 -1 -7 -5z"/>
<path d="M4401 5946 c2 -2 15 -9 29 -15 24 -11 24 -11 6 3 -16 13 -49 24 -35
12z"/>
<path d="M4310 5930 c0 -5 5 -10 11 -10 5 0 7 5 4 10 -3 6 -8 10 -11 10 -2 0
-4 -4 -4 -10z"/>
<path d="M4708 5928 c-7 -17 15 -19 29 -3 4 4 3 5 -4 2 -6 -4 -13 -2 -15 5 -3
8 -6 6 -10 -4z"/>
<path d="M4390 5923 c0 -5 5 -15 10 -23 7 -12 9 -10 7 8 -1 19 -17 33 -17 15z"/>
<path d="M4508 5923 c6 -2 9 -10 6 -15 -4 -7 -2 -8 5 -4 13 9 5 26 -12 25 -9
0 -8 -2 1 -6z"/>
<path d="M4753 5909 c-2 -23 3 -25 10 -4 4 8 3 16 -1 19 -4 3 -9 -4 -9 -15z"/>
<path d="M4853 5907 c0 -19 34 -18 49 1 12 15 11 16 -4 3 -13 -10 -21 -11 -31
-2 -10 8 -14 7 -14 -2z"/>
<path d="M4190 5899 c0 -5 5 -7 10 -4 6 3 10 8 10 11 0 2 -4 4 -10 4 -5 0 -10
-5 -10 -11z"/>
<path d="M4230 5903 c0 -5 5 -15 10 -23 7 -12 9 -10 7 8 -1 19 -17 33 -17 15z"/>
<path d="M4340 5900 c8 -5 20 -10 25 -10 6 0 3 5 -5 10 -8 5 -19 10 -25 10 -5
0 -3 -5 5 -10z"/>
<path d="M4490 5901 c0 -6 4 -13 10 -16 6 -3 7 1 4 9 -7 18 -14 21 -14 7z"/>
<path d="M4927 5899 c7 -7 15 -10 18 -7 3 3 -2 9 -12 12 -14 6 -15 5 -6 -5z"/>
<path d="M4260 5896 c0 -2 7 -7 16 -10 8 -3 12 -2 9 4 -6 10 -25 14 -25 6z"/>
<path d="M5015 5890 c-3 -6 1 -7 9 -4 18 7 21 14 7 14 -6 0 -13 -4 -16 -10z"/>
<path d="M4158 5883 c13 -3 19 -9 16 -15 -4 -7 -2 -8 5 -4 17 11 3 26 -22 25
-22 -2 -22 -2 1 -6z"/>
<path d="M4212 5885 c4 -4 0 -14 -10 -21 -9 -7 -12 -14 -6 -14 6 0 17 6 23 14
9 11 9 16 -1 22 -7 4 -10 4 -6 -1z"/>
<path d="M4308 5883 c6 -3 10 -9 6 -14 -8 -14 2 -11 14 4 8 10 6 13 -11 14
-12 0 -16 -1 -9 -4z"/>
<path d="M5040 5875 c-11 -13 -11 -18 0 -28 10 -9 11 -9 6 1 -4 7 -2 19 4 27
7 8 10 15 7 15 -2 0 -10 -7 -17 -15z"/>
<path d="M4121 5875 c0 -5 3 -16 8 -23 7 -11 9 -10 14 3 4 9 3 14 -2 10 -5 -3
-12 1 -14 7 -3 7 -6 9 -6 3z"/>
<path d="M4336 5862 c-3 -5 1 -9 9 -9 8 0 12 4 9 9 -3 4 -7 8 -9 8 -2 0 -6 -4
-9 -8z"/>
<path d="M4490 5860 c0 -5 5 -10 11 -10 5 0 7 5 4 10 -3 6 -8 10 -11 10 -2 0
-4 -4 -4 -10z"/>
<path d="M4655 5860 c-3 -5 -1 -10 4 -10 6 0 11 5 11 10 0 6 -2 10 -4 10 -3 0
-8 -4 -11 -10z"/>
<path d="M4775 5860 c-3 -5 -1 -10 4 -10 6 0 11 5 11 10 0 6 -2 10 -4 10 -3 0
-8 -4 -11 -10z"/>
<path d="M4999 5853 c-13 -16 -12 -17 4 -4 9 7 17 15 17 17 0 8 -8 3 -21 -13z"/>
<path d="M5069 5843 c-13 -16 -12 -17 4 -4 9 7 17 15 17 17 0 8 -8 3 -21 -13z"/>
<path d="M4150 5839 c0 -5 5 -7 10 -4 6 3 10 8 10 11 0 2 -4 4 -10 4 -5 0 -10
-5 -10 -11z"/>
<path d="M4590 5840 c0 -5 5 -10 11 -10 5 0 7 5 4 10 -3 6 -8 10 -11 10 -2 0
-4 -4 -4 -10z"/>
<path d="M3993 5812 c-1 -22 0 -24 9 -8 6 10 6 22 2 26 -5 5 -10 -3 -11 -18z"/>
<path d="M4169 5823 c-13 -16 -12 -17 4 -4 9 7 17 15 17 17 0 8 -8 3 -21 -13z"/>
<path d="M5133 5825 c0 -7 8 -10 19 -7 10 2 18 6 18 7 0 1 -8 5 -18 7 -11 3
-19 0 -19 -7z"/>
<path d="M4020 5826 c0 -2 7 -6 15 -10 8 -3 15 -1 15 4 0 6 -7 10 -15 10 -8 0
-15 -2 -15 -4z"/>
<path d="M4113 5823 c4 -3 2 -11 -3 -18 -7 -8 -6 -12 3 -12 7 0 14 9 14 19 1
10 -3 18 -9 18 -6 0 -8 -3 -5 -7z"/>
<path d="M4430 5819 c0 -5 5 -7 10 -4 6 3 10 8 10 11 0 2 -4 4 -10 4 -5 0 -10
-5 -10 -11z"/>
<path d="M4975 5820 c-3 -5 -1 -10 4 -10 6 0 11 5 11 10 0 6 -2 10 -4 10 -3 0
-8 -4 -11 -10z"/>
<path d="M3935 5800 c-3 -5 -1 -10 4 -10 6 0 11 5 11 10 0 6 -2 10 -4 10 -3 0
-8 -4 -11 -10z"/>
<path d="M4006 5785 c-9 -13 -16 -28 -16 -32 0 -4 8 4 18 20 10 15 22 24 27
20 4 -5 5 -2 1 5 -10 16 -11 16 -30 -13z"/>
<path d="M4274 5802 c4 -3 14 -7 22 -8 9 -1 13 0 10 4 -4 3 -14 7 -22 8 -9 1
-13 0 -10 -4z"/>
<path d="M5055 5800 c-3 -5 -1 -10 4 -10 6 0 11 5 11 10 0 6 -2 10 -4 10 -3 0
-8 -4 -11 -10z"/>
<path d="M5160 5800 c-9 -6 -10 -10 -3 -10 6 0 15 5 18 10 8 12 4 12 -15 0z"/>
<path d="M5234 5789 c-3 -6 -1 -16 6 -22 10 -9 11 -9 5 2 -4 8 -2 17 6 22 9 6
10 9 2 9 -6 0 -15 -5 -19 -11z"/>
<path d="M3955 5779 c-11 -16 -1 -19 13 -3 7 8 8 14 3 14 -5 0 -13 -5 -16 -11z"/>
<path d="M4156 5773 c-6 -14 -5 -15 5 -6 7 7 10 15 7 18 -3 3 -9 -2 -12 -12z"/>
<path d="M5196 5778 c3 -5 10 -6 15 -3 13 9 11 12 -6 12 -8 0 -12 -4 -9 -9z"/>
<path d="M5313 5776 c0 -8 6 -12 14 -9 7 3 10 9 7 14 -8 14 -21 11 -21 -5z"/>
<path d="M3910 5770 c-13 -8 -12 -10 3 -10 9 0 17 5 17 10 0 12 -1 12 -20 0z"/>
<path d="M3829 5758 c-4 -15 -6 -50 -2 -40 4 10 8 10 21 0 10 -7 14 -9 10 -4
-4 5 -3 18 3 30 10 20 10 20 -5 2 -14 -18 -21 -15 -17 7 1 6 -8 11 -10 5z"/>
<path d="M3881 5755 c0 -5 3 -16 8 -23 7 -11 9 -10 14 3 4 9 3 14 -2 10 -5 -3
-12 1 -14 7 -3 7 -6 9 -6 3z"/>
<path d="M4022 5744 c10 -10 20 -16 22 -13 3 3 -5 11 -17 18 -21 13 -21 12 -5
-5z"/>
<path d="M3922 5738 c-7 -7 -12 -17 -12 -22 0 -6 5 -3 11 7 6 9 14 15 20 12 5
-4 9 -1 9 4 0 14 -13 14 -28 -1z"/>
<path d="M4947 5739 c7 -7 15 -10 18 -7 3 3 -2 9 -12 12 -14 6 -15 5 -6 -5z"/>
<path d="M5275 5739 c-3 -4 2 -6 10 -5 21 3 28 13 10 13 -9 0 -18 -4 -20 -8z"/>
<path d="M5320 5746 c0 -2 7 -9 15 -16 13 -11 14 -10 9 4 -5 14 -24 23 -24 12z"/>
<path d="M5388 5733 c6 -2 10 -9 7 -14 -4 -5 1 -6 10 -2 13 5 14 7 3 14 -7 5
-17 8 -23 8 -5 0 -4 -3 3 -6z"/>
<path d="M4150 5719 c0 -5 5 -7 10 -4 6 3 10 8 10 11 0 2 -4 4 -10 4 -5 0 -10
-5 -10 -11z"/>
<path d="M3865 5700 c-3 -6 1 -7 9 -4 18 7 21 14 7 14 -6 0 -13 -4 -16 -10z"/>
<path d="M3990 5706 c0 -2 7 -7 16 -10 8 -3 12 -2 9 4 -6 10 -25 14 -25 6z"/>
<path d="M5339 5708 c-5 -18 -6 -38 -1 -34 7 8 12 36 6 36 -2 0 -4 -1 -5 -2z"/>
<path d="M5404 5699 c-3 -6 -1 -16 5 -22 9 -9 10 -7 5 7 -5 13 -4 17 4 12 7
-4 12 -2 12 3 0 14 -17 14 -26 0z"/>
<path d="M3821 5697 c2 -1 12 -9 22 -16 15 -12 17 -12 11 3 -3 9 -13 16 -22
16 -8 0 -13 -1 -11 -3z"/>
<path d="M3740 5680 c0 -5 5 -10 11 -10 5 0 7 5 4 10 -3 6 -8 10 -11 10 -2 0
-4 -4 -4 -10z"/>
<path d="M3970 5679 c0 -5 5 -7 10 -4 6 3 10 8 10 11 0 2 -4 4 -10 4 -5 0 -10
-5 -10 -11z"/>
<path d="M3816 5662 c-2 -4 0 -14 6 -22 8 -12 9 -12 5 2 -3 9 -1 19 6 22 9 3
9 5 0 5 -6 1 -14 -3 -17 -7z"/>
<path d="M3795 5631 c-3 -5 -2 -12 3 -15 5 -3 9 1 9 9 0 17 -3 19 -12 6z"/>
<path d="M5455 5629 c-4 -6 -5 -12 -2 -15 2 -3 7 2 10 11 7 17 1 20 -8 4z"/>
<path d="M5415 5620 c3 -5 8 -10 11 -10 2 0 4 5 4 10 0 6 -5 10 -11 10 -5 0
-7 -4 -4 -10z"/>
<path d="M5495 5620 c-3 -6 1 -7 9 -4 18 7 21 14 7 14 -6 0 -13 -4 -16 -10z"/>
<path d="M5531 5614 c0 -11 3 -14 6 -6 3 7 2 16 -1 19 -3 4 -6 -2 -5 -13z"/>
<path d="M3830 5617 c0 -2 6 -10 14 -16 11 -9 16 -9 22 1 4 7 4 10 -1 6 -4 -4
-14 -3 -22 3 -7 6 -13 9 -13 6z"/>
<path d="M3750 5596 c0 -2 8 -10 18 -17 15 -13 16 -12 3 4 -13 16 -21 21 -21
13z"/>
<path d="M5550 5586 c0 -2 7 -7 16 -10 8 -3 12 -2 9 4 -6 10 -25 14 -25 6z"/>
<path d="M3708 5573 c7 -3 16 -2 19 1 4 3 -2 6 -13 5 -11 0 -14 -3 -6 -6z"/>
<path d="M5603 5567 c15 -13 16 -16 2 -27 -9 -7 -13 -15 -10 -18 3 -3 0 -10
-5 -17 -7 -8 -5 -12 4 -12 8 0 13 7 11 16 -1 9 4 24 12 33 13 15 12 18 -9 28
-21 10 -21 10 -5 -3z"/>
<path d="M3735 5551 c-3 -5 -2 -12 3 -15 5 -3 9 1 9 9 0 17 -3 19 -12 6z"/>
<path d="M5555 5550 c-4 -6 -11 -7 -17 -4 -7 4 -8 2 -4 -5 6 -9 11 -9 22 0 14
11 18 19 10 19 -3 0 -8 -5 -11 -10z"/>
<path d="M5643 5547 c0 -8 6 -14 14 -14 9 0 10 4 2 14 -6 7 -12 13 -14 13 -1
0 -2 -6 -2 -13z"/>
<path d="M3630 5510 c-8 -5 -12 -11 -10 -14 3 -2 14 2 24 10 22 15 10 19 -14
4z"/>
<path d="M3531 5504 c3 -18 -1 -34 -8 -32 -5 1 -24 -12 -43 -30 -31 -29 -30
-39 4 -33 5 1 6 -5 3 -13 -4 -10 1 -20 13 -26 23 -12 40 -13 21 -1 -11 7 -9
11 7 20 19 10 20 15 10 36 -6 14 -15 25 -20 25 -4 0 -8 4 -8 8 0 17 30 8 36
-10 3 -10 10 -18 15 -18 13 0 11 9 -6 26 -20 21 -19 35 3 27 18 -7 17 -5 -11
17 -10 7 -17 9 -16 4z m-9 -110 c-26 -20 -38 -17 -18 5 16 17 15 18 -9 16 -14
-2 -25 1 -25 7 0 6 7 8 15 4 8 -3 14 -2 14 2 -4 22 3 23 21 2 19 -22 19 -24 2
-36z"/>
<path d="M3686 5502 c-3 -5 1 -9 9 -9 8 0 12 4 9 9 -3 4 -7 8 -9 8 -2 0 -6 -4
-9 -8z"/>
<path d="M5546 5498 c3 -5 10 -6 15 -3 13 9 11 12 -6 12 -8 0 -12 -4 -9 -9z"/>
<path d="M3596 5475 c-3 -9 -12 -12 -23 -8 -10 3 -15 3 -12 -1 4 -4 16 -8 28
-11 11 -2 25 -6 29 -9 5 -3 9 1 9 8 0 8 -6 12 -14 9 -9 -4 -11 0 -7 11 3 9 4
16 1 16 -3 0 -7 -7 -11 -15z"/>
<path d="M3669 5477 c6 -8 7 -18 3 -22 -4 -5 -1 -5 6 -1 10 6 10 11 1 22 -6 8
-14 14 -16 14 -3 0 0 -6 6 -13z"/>
<path d="M5555 5440 c-3 -5 -1 -10 4 -10 6 0 11 5 11 10 0 6 -2 10 -4 10 -3 0
-8 -4 -11 -10z"/>
<path d="M5708 5443 c10 -4 10 -8 0 -21 -9 -12 -6 -11 10 2 12 11 22 20 22 20
0 1 -10 2 -22 3 -13 0 -17 -1 -10 -4z"/>
<path d="M3588 5423 c9 -3 10 -9 3 -17 -8 -9 -7 -13 4 -13 7 0 13 5 12 11 -1
6 5 10 13 8 8 -2 12 0 7 4 -4 4 -18 9 -30 10 -12 2 -16 0 -9 -3z"/>
<path d="M5595 5420 c-3 -5 -1 -10 4 -10 6 0 11 5 11 10 0 6 -2 10 -4 10 -3 0
-8 -4 -11 -10z"/>
<path d="M5739 5413 c-13 -16 -12 -17 4 -4 16 13 21 21 13 21 -2 0 -10 -8 -17
-17z"/>
<path d="M5656 5402 c-3 -5 1 -9 9 -9 8 0 12 4 9 9 -3 4 -7 8 -9 8 -2 0 -6 -4
-9 -8z"/>
<path d="M5755 5390 c-4 -6 -10 -8 -14 -6 -4 3 -8 -1 -8 -9 0 -10 4 -12 12 -5
7 5 14 8 17 5 2 -3 5 2 5 10 0 18 -3 19 -12 5z"/>
<path d="M3548 5363 c6 -3 10 -9 6 -14 -8 -14 2 -11 14 4 8 10 6 13 -11 14
-12 0 -16 -1 -9 -4z"/>
<path d="M5690 5359 c0 -5 5 -7 10 -4 6 3 10 8 10 11 0 2 -4 4 -10 4 -5 0 -10
-5 -10 -11z"/>
<path d="M3595 5331 c-3 -5 -2 -12 3 -15 5 -3 9 1 9 9 0 17 -3 19 -12 6z"/>
<path d="M3493 5315 c-3 -9 -3 -18 -1 -21 3 -3 8 4 11 16 6 23 -1 27 -10 5z"/>
<path d="M5750 5299 c0 -5 5 -7 10 -4 6 3 10 8 10 11 0 2 -4 4 -10 4 -5 0 -10
-5 -10 -11z"/>
<path d="M3359 5286 c-1 -3 -2 -9 -3 -13 -1 -5 -5 -14 -9 -20 -5 -7 -5 -13 -1
-13 4 0 -1 -7 -12 -15 -10 -8 -15 -15 -10 -15 6 0 1 -6 -9 -14 -18 -13 -18
-14 3 -25 13 -7 27 -9 33 -6 5 4 16 1 24 -5 9 -7 15 -8 15 -2 0 13 -26 23 -43
16 -8 -3 -14 2 -14 11 0 9 6 13 16 10 9 -2 23 0 31 5 8 5 10 10 4 10 -6 0 -10
15 -9 36 1 19 -2 37 -7 40 -4 3 -9 3 -9 0z m1 -66 c-12 -8 -12 -10 -1 -10 8 0
12 -2 9 -5 -3 -3 -13 -2 -22 1 -14 5 -15 9 -4 15 7 5 18 9 23 9 6 0 3 -5 -5
-10z"/>
<path d="M3505 5280 c-3 -6 1 -7 9 -4 18 7 21 14 7 14 -6 0 -13 -4 -16 -10z"/>
<path d="M3403 5273 c-7 -2 -13 -9 -13 -15 0 -7 4 -7 13 1 10 8 17 7 25 -1 7
-7 12 -8 12 -2 0 5 5 2 11 -6 9 -13 10 -13 6 0 -2 8 -10 14 -16 13 -6 -2 -11
2 -11 7 0 11 -7 12 -27 3z"/>
<path d="M3401 5241 c-11 -7 -11 -13 -1 -27 9 -16 11 -16 6 -2 -6 20 10 34 17
16 4 -9 6 -10 6 -1 1 17 -12 23 -28 14z"/>
<path d="M3470 5238 c0 -4 4 -8 9 -8 6 0 12 4 15 8 3 5 -1 9 -9 9 -8 0 -15 -4
-15 -9z"/>
<path d="M3446 5222 c-3 -5 1 -9 9 -9 8 0 12 4 9 9 -3 4 -7 8 -9 8 -2 0 -6 -4
-9 -8z"/>
<path d="M3471 5147 c-8 -10 -7 -14 2 -14 8 0 14 6 14 14 0 7 -1 13 -2 13 -2
0 -8 -6 -14 -13z"/>
<path d="M3350 5139 c0 -5 5 -7 10 -4 6 3 10 8 10 11 0 2 -4 4 -10 4 -5 0 -10
-5 -10 -11z"/>
<path d="M3433 5135 c0 -8 4 -12 9 -9 4 3 8 9 8 15 0 5 -4 9 -8 9 -5 0 -9 -7
-9 -15z"/>
<path d="M5836 5142 c-3 -5 1 -9 9 -9 8 0 12 4 9 9 -3 4 -7 8 -9 8 -2 0 -6 -4
-9 -8z"/>
<path d="M3375 5131 c-3 -5 0 -13 6 -17 8 -4 9 -3 5 4 -10 16 6 15 24 0 12
-11 12 -10 1 5 -15 19 -27 22 -36 8z"/>
<path d="M5948 5123 c10 -4 10 -8 0 -21 -12 -15 -11 -16 4 -3 19 14 15 32 -5
30 -8 0 -8 -2 1 -6z"/>
<path d="M5915 5111 c-3 -5 -2 -12 3 -15 5 -3 9 1 9 9 0 17 -3 19 -12 6z"/>
<path d="M3356 5095 c-9 -26 -7 -32 5 -12 6 10 9 21 6 23 -2 3 -7 -2 -11 -11z"/>
<path d="M5895 5080 c-3 -5 -1 -10 4 -10 6 0 11 5 11 10 0 6 -2 10 -4 10 -3 0
-8 -4 -11 -10z"/>
<path d="M3325 5071 c-3 -5 -2 -12 3 -15 5 -3 9 1 9 9 0 17 -3 19 -12 6z"/>
<path d="M3374 5066 c1 -8 5 -18 8 -22 4 -3 5 1 4 10 -1 8 -5 18 -8 22 -4 3
-5 -1 -4 -10z"/>
<path d="M5970 5060 c0 -5 5 -10 11 -10 5 0 7 5 4 10 -3 6 -8 10 -11 10 -2 0
-4 -4 -4 -10z"/>
<path d="M3315 5040 c3 -6 1 -10 -6 -10 -7 0 -10 -3 -6 -6 3 -3 13 -2 22 4 16
8 16 9 1 15 -10 4 -15 3 -11 -3z"/>
<path d="M3366 5022 c-3 -5 1 -9 9 -9 8 0 12 4 9 9 -3 4 -7 8 -9 8 -2 0 -6 -4
-9 -8z"/>
<path d="M3506 5018 c3 -5 10 -6 15 -3 13 9 11 12 -6 12 -8 0 -12 -4 -9 -9z"/>
<path d="M3286 5006 c10 -8 21 -12 24 -10 5 6 -21 24 -34 24 -6 0 -1 -6 10
-14z"/>
<path d="M3347 4999 c7 -7 15 -10 18 -7 3 3 -2 9 -12 12 -14 6 -15 5 -6 -5z"/>
<path d="M3370 4960 c0 -5 5 -10 11 -10 5 0 7 5 4 10 -3 6 -8 10 -11 10 -2 0
-4 -4 -4 -10z"/>
<path d="M5930 4966 c0 -2 7 -7 16 -10 8 -3 12 -2 9 4 -6 10 -25 14 -25 6z"/>
<path d="M3336 4947 c3 -10 9 -15 12 -12 3 3 0 11 -7 18 -10 9 -11 8 -5 -6z"/>
<path d="M3315 4943 c3 -3 0 -11 -5 -18 -7 -8 -5 -12 4 -12 14 0 16 22 3 32
-4 3 -5 2 -2 -2z"/>
<path d="M3274 4909 c-3 -6 -2 -15 3 -20 5 -5 9 -1 9 11 0 23 -2 24 -12 9z"/>
<path d="M3355 4891 c-3 -5 -2 -12 3 -15 5 -3 9 1 9 9 0 17 -3 19 -12 6z"/>
<path d="M3184 4862 c3 -6 2 -13 -3 -17 -6 -3 -8 -12 -5 -19 3 -8 0 -17 -6
-21 -9 -6 -9 -10 1 -16 12 -8 12 -10 0 -18 -10 -6 -10 -10 -1 -16 8 -5 6 -11
-6 -19 -14 -11 -15 -14 -3 -21 8 -5 11 -5 7 0 -4 4 3 16 16 26 30 24 35 24 29
0 -3 -10 -1 -21 4 -24 10 -6 10 39 0 49 -4 4 -13 2 -20 -4 -11 -9 -14 -6 -14
17 0 20 4 28 14 24 7 -3 13 0 13 7 0 6 -4 8 -10 5 -5 -3 -10 -2 -10 3 0 6 6
12 14 15 20 8 29 -22 14 -41 -11 -13 -11 -14 2 -7 8 6 18 10 22 10 3 0 10 4
15 9 4 5 3 6 -3 3 -6 -4 -16 4 -22 18 -6 13 -21 29 -33 35 -13 7 -19 8 -15 2z
m26 -16 c0 -2 -7 -7 -16 -10 -8 -3 -12 -2 -9 4 6 10 25 14 25 6z"/>
<path d="M3336 4838 c3 -5 10 -6 15 -3 13 9 11 12 -6 12 -8 0 -12 -4 -9 -9z"/>
<path d="M3236 4767 c3 -10 9 -15 12 -12 3 3 0 11 -7 18 -10 9 -11 8 -5 -6z"/>
<path d="M5920 4740 c-9 -6 -10 -10 -3 -10 6 0 15 5 18 10 8 12 4 12 -15 0z"/>
<path d="M3230 4737 c0 -2 6 -10 14 -16 11 -9 16 -9 22 1 4 7 4 10 -1 6 -4 -4
-14 -3 -22 3 -7 6 -13 9 -13 6z"/>
<path d="M3177 4710 c-9 -11 -13 -20 -7 -20 5 0 14 9 20 20 6 11 9 20 8 20 -2
0 -11 -9 -21 -20z"/>
<path d="M3286 4722 c-3 -5 1 -9 9 -9 8 0 12 4 9 9 -3 4 -7 8 -9 8 -2 0 -6 -4
-9 -8z"/>
<path d="M6015 4720 c-3 -5 -1 -10 4 -10 6 0 11 5 11 10 0 6 -2 10 -4 10 -3 0
-8 -4 -11 -10z"/>
<path d="M3196 4695 c-9 -26 -7 -32 5 -12 6 10 9 21 6 23 -2 3 -7 -2 -11 -11z"/>
<path d="M6053 4665 c0 -8 4 -15 9 -15 4 0 8 4 8 9 0 6 -4 12 -8 15 -5 3 -9
-1 -9 -9z"/>
<path d="M3199 4643 c-6 -32 -5 -53 1 -53 4 0 7 14 7 30 0 27 -5 41 -8 23z"/>
<path d="M3430 4640 c0 -5 5 -10 11 -10 5 0 7 5 4 10 -3 6 -8 10 -11 10 -2 0
-4 -4 -4 -10z"/>
<path d="M3290 4626 c0 -2 7 -7 16 -10 8 -3 12 -2 9 4 -6 10 -25 14 -25 6z"/>
<path d="M6036 4618 c3 -5 10 -6 15 -3 13 9 11 12 -6 12 -8 0 -12 -4 -9 -9z"/>
<path d="M6070 4621 c0 -6 4 -13 10 -16 6 -3 7 1 4 9 -7 18 -14 21 -14 7z"/>
<path d="M3140 4599 c0 -5 5 -7 10 -4 6 3 10 8 10 11 0 2 -4 4 -10 4 -5 0 -10
-5 -10 -11z"/>
<path d="M3250 4600 c0 -5 5 -10 11 -10 5 0 7 5 4 10 -3 6 -8 10 -11 10 -2 0
-4 -4 -4 -10z"/>
<path d="M6055 4580 c3 -5 8 -10 11 -10 2 0 4 5 4 10 0 6 -5 10 -11 10 -5 0
-7 -4 -4 -10z"/>
<path d="M3147 4569 c7 -7 15 -10 18 -7 3 3 -2 9 -12 12 -14 6 -15 5 -6 -5z"/>
<path d="M3170 4551 c-8 -6 -18 -7 -24 -4 -5 3 -6 1 -2 -5 5 -9 13 -9 27 -2
10 6 19 13 19 15 0 7 -3 6 -20 -4z"/>
<path d="M3210 4557 c0 -2 6 -10 14 -16 11 -9 16 -9 22 1 4 7 4 10 -1 6 -4 -4
-14 -3 -22 3 -7 6 -13 9 -13 6z"/>
<path d="M6053 4545 c0 -8 4 -15 9 -15 4 0 8 4 8 9 0 6 -4 12 -8 15 -5 3 -9
-1 -9 -9z"/>
<path d="M3147 4499 c4 -13 8 -18 11 -10 2 7 -1 18 -6 23 -8 8 -9 4 -5 -13z"/>
<path d="M6033 4505 c0 -8 4 -15 9 -15 4 0 8 4 8 9 0 6 -4 12 -8 15 -5 3 -9
-1 -9 -9z"/>
<path d="M3140 4466 c0 -2 8 -10 18 -17 15 -13 16 -12 3 4 -13 16 -21 21 -21
13z"/>
<path d="M6006 4442 c-3 -5 1 -9 9 -9 8 0 12 4 9 9 -3 4 -7 8 -9 8 -2 0 -6 -4
-9 -8z"/>
<path d="M3173 4433 c-17 -6 -17 -20 0 -20 8 0 14 6 14 14 0 7 -1 13 -1 12 -1
0 -7 -3 -13 -6z"/>
<path d="M3219 4413 c-13 -16 -12 -17 4 -4 16 13 21 21 13 21 -2 0 -10 -8 -17
-17z"/>
<path d="M3253 4405 c0 -8 4 -12 9 -9 5 3 6 10 3 15 -9 13 -12 11 -12 -6z"/>
<path d="M6035 4400 c3 -5 8 -10 11 -10 2 0 4 5 4 10 0 6 -5 10 -11 10 -5 0
-7 -4 -4 -10z"/>
<path d="M3203 4378 c-11 -19 -13 -39 -1 -32 5 3 7 9 4 12 -3 3 -1 11 5 19 6
7 9 13 6 13 -3 0 -9 -6 -14 -12z"/>
<path d="M3250 4360 c0 -5 5 -10 11 -10 5 0 7 5 4 10 -3 6 -8 10 -11 10 -2 0
-4 -4 -4 -10z"/>
<path d="M6036 4358 c3 -5 10 -6 15 -3 13 9 11 12 -6 12 -8 0 -12 -4 -9 -9z"/>
<path d="M3151 4334 c0 -11 3 -14 6 -6 3 7 2 16 -1 19 -3 4 -6 -2 -5 -13z"/>
<path d="M3250 4319 c0 -5 5 -7 10 -4 6 3 10 8 10 11 0 2 -4 4 -10 4 -5 0 -10
-5 -10 -11z"/>
<path d="M6051 4307 c-8 -10 -7 -14 2 -14 8 0 14 6 14 14 0 7 -1 13 -2 13 -2
0 -8 -6 -14 -13z"/>
<path d="M3180 4271 c0 -10 19 -25 25 -20 1 2 -3 10 -11 17 -8 7 -14 8 -14 3z"/>
<path d="M3295 4221 c-3 -5 -2 -12 3 -15 5 -3 9 1 9 9 0 17 -3 19 -12 6z"/>
<path d="M3293 4149 c-2 -23 3 -25 10 -4 4 8 3 16 -1 19 -4 3 -9 -4 -9 -15z"/>
<path d="M5976 4162 c-2 -4 -1 -14 4 -22 7 -11 9 -9 7 8 -1 24 -3 26 -11 14z"/>
<path d="M3232 4121 c2 -18 -3 -24 -11 -13 -7 11 -9 11 -14 0 -7 -20 20 -18
38 2 13 14 13 17 1 17 -8 0 -15 -3 -14 -6z"/>
<path d="M5955 4111 c-3 -5 -2 -12 3 -15 5 -3 9 1 9 9 0 17 -3 19 -12 6z"/>
<path d="M5947 4059 c7 -7 15 -10 18 -7 3 3 -2 9 -12 12 -14 6 -15 5 -6 -5z"/>
<path d="M3244 4022 c4 -3 14 -7 22 -8 9 -1 13 0 10 4 -4 3 -14 7 -22 8 -9 1
-13 0 -10 -4z"/>
<path d="M5930 3999 c0 -5 5 -7 10 -4 6 3 10 8 10 11 0 2 -4 4 -10 4 -5 0 -10
-5 -10 -11z"/>
<path d="M3250 3996 c0 -2 8 -10 18 -17 15 -13 16 -12 3 4 -13 16 -21 21 -21
13z"/>
<path d="M5935 3960 c3 -5 8 -10 11 -10 2 0 4 5 4 10 0 6 -5 10 -11 10 -5 0
-7 -4 -4 -10z"/>
<path d="M3276 3947 c3 -10 9 -15 12 -12 3 3 0 11 -7 18 -10 9 -11 8 -5 -6z"/>
<path d="M3400 3900 c8 -5 20 -10 25 -10 6 0 3 5 -5 10 -8 5 -19 10 -25 10 -5
0 -3 -5 5 -10z"/>
<path d="M3354 3889 c-3 -6 -2 -15 3 -20 5 -5 9 -1 9 11 0 23 -2 24 -12 9z"/>
<path d="M3310 3859 c0 -5 5 -7 10 -4 6 3 10 8 10 11 0 2 -4 4 -10 4 -5 0 -10
-5 -10 -11z"/>
<path d="M3346 3841 c-3 -4 6 -7 19 -7 14 0 22 2 19 5 -8 8 -34 10 -38 2z"/>
<path d="M3419 3848 c-5 -18 -6 -38 -1 -34 7 8 12 36 6 36 -2 0 -4 -1 -5 -2z"/>
<path d="M5854 3836 c1 -8 5 -18 8 -22 4 -3 5 1 4 10 -1 8 -5 18 -8 22 -4 3
-5 -1 -4 -10z"/>
<path d="M3346 3798 c3 -4 9 -8 15 -8 5 0 9 4 9 8 0 5 -7 9 -15 9 -8 0 -12 -4
-9 -9z"/>
<path d="M3385 3760 c-3 -6 1 -7 9 -4 18 7 21 14 7 14 -6 0 -13 -4 -16 -10z"/>
<path d="M5794 3756 c1 -8 5 -18 8 -22 4 -3 5 1 4 10 -1 8 -5 18 -8 22 -4 3
-5 -1 -4 -10z"/>
<path d="M3434 3705 c0 -13 3 -22 7 -19 8 4 6 30 -2 38 -3 3 -5 -5 -5 -19z"/>
<path d="M5753 3705 c0 -8 4 -12 9 -9 5 3 6 10 3 15 -9 13 -12 11 -12 -6z"/>
<path d="M5700 3700 c-9 -6 -10 -10 -3 -10 6 0 15 5 18 10 8 12 4 12 -15 0z"/>
<path d="M3535 3660 c3 -5 8 -10 11 -10 2 0 4 5 4 10 0 6 -5 10 -11 10 -5 0
-7 -4 -4 -10z"/>
<path d="M5750 3660 c0 -5 5 -10 11 -10 5 0 7 5 4 10 -3 6 -8 10 -11 10 -2 0
-4 -4 -4 -10z"/>
<path d="M5755 3629 c-4 -6 -5 -12 -2 -15 2 -3 7 2 10 11 7 17 1 20 -8 4z"/>
<path d="M3496 3607 c3 -10 9 -15 12 -12 3 3 0 11 -7 18 -10 9 -11 8 -5 -6z"/>
<path d="M3630 3603 c0 -6 8 -17 18 -24 16 -13 16 -13 2 6 -8 11 -16 22 -17
24 -2 2 -3 0 -3 -6z"/>
<path d="M5593 3555 c0 -8 4 -12 9 -9 5 3 6 10 3 15 -9 13 -12 11 -12 -6z"/>
<path d="M5113 3535 c0 -8 4 -12 9 -9 5 3 6 10 3 15 -9 13 -12 11 -12 -6z"/>
<path d="M3720 3500 c8 -5 20 -10 25 -10 6 0 3 5 -5 10 -8 5 -19 10 -25 10 -5
0 -3 -5 5 -10z"/>
<path d="M5433 3455 c0 -8 4 -12 9 -9 5 3 6 10 3 15 -9 13 -12 11 -12 -6z"/>
<path d="M3733 3435 c0 -8 4 -12 9 -9 5 3 6 10 3 15 -9 13 -12 11 -12 -6z"/>
<path d="M4230 3419 c0 -5 5 -7 10 -4 6 3 10 8 10 11 0 2 -4 4 -10 4 -5 0 -10
-5 -10 -11z"/>
<path d="M3770 3400 c0 -5 5 -10 11 -10 5 0 7 5 4 10 -3 6 -8 10 -11 10 -2 0
-4 -4 -4 -10z"/>
<path d="M5455 3400 c-3 -5 -1 -10 4 -10 6 0 11 5 11 10 0 6 -2 10 -4 10 -3 0
-8 -4 -11 -10z"/>
<path d="M5253 3331 c0 -11 5 -18 9 -15 4 3 5 11 1 19 -7 21 -12 19 -10 -4z"/>
<path d="M3970 3319 c0 -5 5 -7 10 -4 6 3 10 8 10 11 0 2 -4 4 -10 4 -5 0 -10
-5 -10 -11z"/>
<path d="M3920 3300 c-12 -7 -10 -9 7 -7 12 0 19 5 17 9 -6 10 -6 10 -24 -2z"/>
<path d="M4075 3261 c-3 -5 -2 -12 3 -15 5 -3 9 1 9 9 0 17 -3 19 -12 6z"/>
<path d="M5147 3259 c7 -7 15 -10 18 -7 3 3 -2 9 -12 12 -14 6 -15 5 -6 -5z"/>
<path d="M4955 3251 c-3 -5 -2 -12 3 -15 5 -3 9 1 9 9 0 17 -3 19 -12 6z"/>
<path d="M4207 3219 c7 -7 15 -10 18 -7 3 3 -2 9 -12 12 -14 6 -15 5 -6 -5z"/>
<path d="M4170 3206 c0 -2 7 -7 16 -10 8 -3 12 -2 9 4 -6 10 -25 14 -25 6z"/>
<path d="M4370 3200 c0 -5 5 -10 11 -10 5 0 7 5 4 10 -3 6 -8 10 -11 10 -2 0
-4 -4 -4 -10z"/>
<path d="M4756 3193 c-6 -14 -5 -15 5 -6 7 7 10 15 7 18 -3 3 -9 -2 -12 -12z"/>
<path d="M4830 3200 c0 -5 5 -10 11 -10 5 0 7 5 4 10 -3 6 -8 10 -11 10 -2 0
-4 -4 -4 -10z"/>
<path d="M4936 3202 c-2 -4 -1 -14 4 -22 7 -11 9 -9 7 8 -1 24 -3 26 -11 14z"/>
<path d="M4205 3179 c-3 -4 2 -6 10 -5 21 3 28 13 10 13 -9 0 -18 -4 -20 -8z"/>
<path d="M4433 3155 c0 -8 4 -12 9 -9 5 3 6 10 3 15 -9 13 -12 11 -12 -6z"/>
<path d="M4610 3160 c0 -5 5 -10 11 -10 5 0 7 5 4 10 -3 6 -8 10 -11 10 -2 0
-4 -4 -4 -10z"/>
<path d="M4695 3160 c-3 -5 -1 -10 4 -10 6 0 11 5 11 10 0 6 -2 10 -4 10 -3 0
-8 -4 -11 -10z"/>
<path d="M4730 3160 c0 -5 5 -10 11 -10 5 0 7 5 4 10 -3 6 -8 10 -11 10 -2 0
-4 -4 -4 -10z"/>
<path d="M4386 3138 c3 -5 10 -6 15 -3 13 9 11 12 -6 12 -8 0 -12 -4 -9 -9z"/>
<path d="M3287 5124 c-3 -3 -3 -12 0 -20 4 -11 9 -12 19 -3 8 6 11 15 8 20 -6
10 -18 12 -27 3z"/>
<path d="M5860 2026 c0 -2 8 -10 18 -17 15 -13 16 -12 3 4 -13 16 -21 21 -21
13z"/>
<path d="M5675 1911 c-3 -5 -2 -12 3 -15 5 -3 9 1 9 9 0 17 -3 19 -12 6z"/>
</g>
</svg>
